# xmcd
#
# Track frame offsets:
#	150
#	15312
#	28492
#	44057
#	59845
#	75760
#	93147
#	108850
#	124237
#	138725
#
# Disc length: 2053 seconds
#
# Revision: 2
# Processed by: cddbd v1.5.1PL0 Copyright (c) Steve Scherf et al.
# Submitted via: audiograbber 1.83.01
#
DISCID=8308030a
DTITLE=Doug Stone - Super Hits
DYEAR=1997
DGENRE=Country
TTITLE0=I'd Be Better Off (In A Pine Box)
TTITLE1=Fourteen Minutes Old
TTITLE2=In A Different Light
TTITLE3=These Lips Don't Know How To Say Goodbye
TTITLE4=I Never Knew Love
TTITLE5=Come In Out Of The Pain
TTITLE6=A Jukebox With A Country Song
TTITLE7=More Love
TTITLE8=Why Didn't I Think Of That
TTITLE9=Faith In Me, Faith In You
EXTD=
EXTT0=
EXTT1=
EXTT2=
EXTT3=
EXTT4=
EXTT5=
EXTT6=
EXTT7=
EXTT8=
EXTT9=
PLAYORDER=
